<mxfile host="app.diagrams.net" modified="2023-05-24T04:16:44.026Z" agent="Mozilla/5.0 (Windows NT 10.0; WOW64) AppleWebKit/537.36 (KHTML, like Gecko) Chrome/112.0.5615.138 Safari/537.36 NetHelper70" etag="66hMQMWbtTYERluHYsZe" version="21.3.3" type="github">
  <diagram id="C5RBs43oDa-KdzZeNtuy" name="Page-1">
    <mxGraphModel dx="1434" dy="806" grid="1" gridSize="10" guides="1" tooltips="1" connect="1" arrows="1" fold="1" page="1" pageScale="1" pageWidth="827" pageHeight="1169" math="0" shadow="0">
      <root>
        <mxCell id="WIyWlLk6GJQsqaUBKTNV-0" />
        <mxCell id="WIyWlLk6GJQsqaUBKTNV-1" parent="WIyWlLk6GJQsqaUBKTNV-0" />
        <mxCell id="7gCrzjOzmA9yeLuYzQMZ-10" value="no" style="edgeStyle=orthogonalEdgeStyle;rounded=0;orthogonalLoop=1;jettySize=auto;html=1;entryX=0.5;entryY=0;entryDx=0;entryDy=0;" edge="1" parent="WIyWlLk6GJQsqaUBKTNV-1" source="7gCrzjOzmA9yeLuYzQMZ-1" target="7gCrzjOzmA9yeLuYzQMZ-7">
          <mxGeometry relative="1" as="geometry" />
        </mxCell>
        <mxCell id="7gCrzjOzmA9yeLuYzQMZ-15" value="yes" style="edgeStyle=orthogonalEdgeStyle;rounded=0;orthogonalLoop=1;jettySize=auto;html=1;entryX=0;entryY=0.5;entryDx=0;entryDy=0;" edge="1" parent="WIyWlLk6GJQsqaUBKTNV-1" source="7gCrzjOzmA9yeLuYzQMZ-1" target="7gCrzjOzmA9yeLuYzQMZ-13">
          <mxGeometry relative="1" as="geometry">
            <Array as="points">
              <mxPoint x="240" y="390" />
              <mxPoint x="240" y="720" />
            </Array>
          </mxGeometry>
        </mxCell>
        <mxCell id="7gCrzjOzmA9yeLuYzQMZ-1" value="AccessToken이&lt;br&gt;있는가?" style="rhombus;whiteSpace=wrap;html=1;" vertex="1" parent="WIyWlLk6GJQsqaUBKTNV-1">
          <mxGeometry x="275" y="340" width="170" height="100" as="geometry" />
        </mxCell>
        <mxCell id="7gCrzjOzmA9yeLuYzQMZ-18" value="yes" style="edgeStyle=orthogonalEdgeStyle;rounded=0;orthogonalLoop=1;jettySize=auto;html=1;entryX=0.5;entryY=0;entryDx=0;entryDy=0;" edge="1" parent="WIyWlLk6GJQsqaUBKTNV-1" source="7gCrzjOzmA9yeLuYzQMZ-4" target="7gCrzjOzmA9yeLuYzQMZ-17">
          <mxGeometry relative="1" as="geometry" />
        </mxCell>
        <mxCell id="7gCrzjOzmA9yeLuYzQMZ-19" value="no" style="edgeStyle=orthogonalEdgeStyle;rounded=0;orthogonalLoop=1;jettySize=auto;html=1;entryX=1;entryY=0.5;entryDx=0;entryDy=0;" edge="1" parent="WIyWlLk6GJQsqaUBKTNV-1" source="7gCrzjOzmA9yeLuYzQMZ-4" target="7gCrzjOzmA9yeLuYzQMZ-1">
          <mxGeometry relative="1" as="geometry">
            <Array as="points">
              <mxPoint x="490" y="845" />
              <mxPoint x="490" y="390" />
            </Array>
          </mxGeometry>
        </mxCell>
        <mxCell id="7gCrzjOzmA9yeLuYzQMZ-4" value="Token이 유효한가?" style="rhombus;whiteSpace=wrap;html=1;" vertex="1" parent="WIyWlLk6GJQsqaUBKTNV-1">
          <mxGeometry x="275" y="800" width="170" height="90" as="geometry" />
        </mxCell>
        <mxCell id="7gCrzjOzmA9yeLuYzQMZ-9" style="edgeStyle=orthogonalEdgeStyle;rounded=0;orthogonalLoop=1;jettySize=auto;html=1;entryX=0.5;entryY=0;entryDx=0;entryDy=0;" edge="1" parent="WIyWlLk6GJQsqaUBKTNV-1" source="7gCrzjOzmA9yeLuYzQMZ-6" target="7gCrzjOzmA9yeLuYzQMZ-1">
          <mxGeometry relative="1" as="geometry" />
        </mxCell>
        <mxCell id="7gCrzjOzmA9yeLuYzQMZ-6" value="App init" style="rounded=1;whiteSpace=wrap;html=1;" vertex="1" parent="WIyWlLk6GJQsqaUBKTNV-1">
          <mxGeometry x="300" y="240" width="120" height="60" as="geometry" />
        </mxCell>
        <mxCell id="7gCrzjOzmA9yeLuYzQMZ-12" style="edgeStyle=orthogonalEdgeStyle;rounded=0;orthogonalLoop=1;jettySize=auto;html=1;entryX=0.5;entryY=0;entryDx=0;entryDy=0;" edge="1" parent="WIyWlLk6GJQsqaUBKTNV-1" source="7gCrzjOzmA9yeLuYzQMZ-7" target="7gCrzjOzmA9yeLuYzQMZ-11">
          <mxGeometry relative="1" as="geometry" />
        </mxCell>
        <mxCell id="7gCrzjOzmA9yeLuYzQMZ-7" value="Login&lt;br&gt;(authorize)" style="shape=parallelogram;perimeter=parallelogramPerimeter;whiteSpace=wrap;html=1;fixedSize=1;" vertex="1" parent="WIyWlLk6GJQsqaUBKTNV-1">
          <mxGeometry x="275" y="480" width="170" height="60" as="geometry" />
        </mxCell>
        <mxCell id="7gCrzjOzmA9yeLuYzQMZ-14" style="edgeStyle=orthogonalEdgeStyle;rounded=0;orthogonalLoop=1;jettySize=auto;html=1;entryX=0.5;entryY=0;entryDx=0;entryDy=0;" edge="1" parent="WIyWlLk6GJQsqaUBKTNV-1" source="7gCrzjOzmA9yeLuYzQMZ-11" target="7gCrzjOzmA9yeLuYzQMZ-13">
          <mxGeometry relative="1" as="geometry" />
        </mxCell>
        <mxCell id="7gCrzjOzmA9yeLuYzQMZ-11" value="save accessToken" style="rounded=0;whiteSpace=wrap;html=1;" vertex="1" parent="WIyWlLk6GJQsqaUBKTNV-1">
          <mxGeometry x="300" y="584.5" width="120" height="60" as="geometry" />
        </mxCell>
        <mxCell id="7gCrzjOzmA9yeLuYzQMZ-16" style="edgeStyle=orthogonalEdgeStyle;rounded=0;orthogonalLoop=1;jettySize=auto;html=1;entryX=0.5;entryY=0;entryDx=0;entryDy=0;" edge="1" parent="WIyWlLk6GJQsqaUBKTNV-1" source="7gCrzjOzmA9yeLuYzQMZ-13" target="7gCrzjOzmA9yeLuYzQMZ-4">
          <mxGeometry relative="1" as="geometry" />
        </mxCell>
        <mxCell id="7gCrzjOzmA9yeLuYzQMZ-13" value="Service init" style="rounded=0;whiteSpace=wrap;html=1;" vertex="1" parent="WIyWlLk6GJQsqaUBKTNV-1">
          <mxGeometry x="300" y="690" width="120" height="60" as="geometry" />
        </mxCell>
        <mxCell id="7gCrzjOzmA9yeLuYzQMZ-17" value="App Ready" style="rounded=1;whiteSpace=wrap;html=1;" vertex="1" parent="WIyWlLk6GJQsqaUBKTNV-1">
          <mxGeometry x="300" y="940" width="120" height="60" as="geometry" />
        </mxCell>
      </root>
    </mxGraphModel>
  </diagram>
</mxfile>
